HIERARCHY
ROOT Hips
{
	OFFSET 0.00000 0.00000 0.00000
	CHANNELS 6 Xposition Yposition Zposition Zrotation Yrotation Xrotation 
	JOINT LHipJoint
	{
		OFFSET 0 0 0
		CHANNELS 3 Zrotation Yrotation Xrotation
		JOINT LeftHip
		{
			OFFSET 1.57358 -1.76629 0.73362
			CHANNELS 3 Zrotation Yrotation Xrotation
			JOINT LeftKnee
			{
				OFFSET 2.40600 -6.61045 0.00000
				CHANNELS 3 Zrotation Yrotation Xrotation
				JOINT LeftAnkle
				{
					OFFSET 2.66168 -7.31291 0.00000
					CHANNELS 3 Zrotation Yrotation Xrotation
					JOINT LeftToe
					{
						OFFSET 0.20870 -0.57341 2.12506
						CHANNELS 3 Zrotation Yrotation Xrotation
						End Site
						{
							OFFSET 0.00000 -0.00000 1.10557
						}
					}
				}
			}
		}
	}
	JOINT RHipJoint
	{
		OFFSET 0 0 0
		CHANNELS 3 Zrotation Yrotation Xrotation
		JOINT RightHip
		{
			OFFSET -1.49299 -1.76629 0.73362
			CHANNELS 3 Zrotation Yrotation Xrotation
			JOINT RightKnee
			{
				OFFSET -2.43663 -6.69460 0.00000
				CHANNELS 3 Zrotation Yrotation Xrotation
				JOINT RightAnkle
				{
					OFFSET -2.62959 -7.22474 0.00000
					CHANNELS 3 Zrotation Yrotation Xrotation
					JOINT RightToe
					{
						OFFSET -0.25784 -0.70841 2.21862
						CHANNELS 3 Zrotation Yrotation Xrotation
						End Site
						{
							OFFSET -0.00000 -0.00000 1.16452
						}
					}
				}
			}
		}
	}
	JOINT lowerback
	{
		OFFSET 0 0 0
		CHANNELS 3 Zrotation Yrotation Xrotation
		JOINT Chest
		{
			OFFSET -0.00034 2.12399 -0.25450
			CHANNELS 3 Zrotation Yrotation Xrotation
			JOINT Chest2
			{
				OFFSET 0.05594 2.14379 -0.03318
				CHANNELS 3 Zrotation Yrotation Xrotation
				JOINT lowerneck
				{
					OFFSET 0 0 0
					CHANNELS 3 Zrotation Yrotation Xrotation
					JOINT Neck
					{
						OFFSET -0.09835 1.62725 0.24211
						CHANNELS 3 Zrotation Yrotation Xrotation
						JOINT Head
						{
							OFFSET 0.10849 1.66041 -0.22648
							CHANNELS 3 Zrotation Yrotation Xrotation
							End Site
							{
								OFFSET 0.04385 1.68267 -0.10541
							}
						}
					}
				}
				JOINT LeftCollar
				{
					OFFSET 0 0 0
					CHANNELS 3 Zrotation Yrotation Xrotation
					JOINT LeftShoulder
					{
						OFFSET 3.29108 0.79398 -0.68179
CHANNELS 3 Zrotation Xrotation Yrotation
						JOINT LeftElbow
						{
OFFSET 0 -5.153100 -0.000000
CHANNELS 3 Zrotation Xrotation Yrotation
							JOINT LeftWrist
							{
OFFSET 0 -3.751380 -0.000000
CHANNELS 3 Zrotation Xrotation Yrotation
								JOINT lhand
								{
									OFFSET 0 0 0
CHANNELS 3 Zrotation Xrotation Yrotation
									JOINT LFingers
									{
OFFSET 0 -0.529170 0.000000
CHANNELS 3 Zrotation Xrotation Yrotation
										End Site
										{
OFFSET 0 -0.426630 0.000000
										}
									}
								}
								JOINT LThumb
								{
OFFSET 0 0.000000 0.000000
CHANNELS 3 Zrotation Xrotation Yrotation
									End Site
									{
OFFSET 0 -0.433150 0.433150
									}
								}
							}
						}
					}
				}
				JOINT RightCollar
				{
					OFFSET 0 0 0
					CHANNELS 3 Zrotation Yrotation Xrotation
					JOINT RightShoulder
					{
						OFFSET -3.07414 1.06285 -0.44338
CHANNELS 3 Zrotation Xrotation Yrotation
						JOINT RightElbow
						{
OFFSET 0 -5.296130 0.000000
CHANNELS 3 Zrotation Xrotation Yrotation
							JOINT RightWrist
							{
OFFSET 0 -3.761440 -0.000000
CHANNELS 3 Zrotation Xrotation Yrotation
								JOINT rhand
								{
									OFFSET 0 0 0
CHANNELS 3 Zrotation Xrotation Yrotation
									JOINT RFingers
									{
OFFSET 0 -0.747320 0.000000
CHANNELS 3 Zrotation Xrotation Yrotation
										End Site
										{
OFFSET 0 -0.602510 0.000000
										}
									}
								}
								JOINT RThumb
								{
OFFSET 0 0.000000 0.000000
CHANNELS 3 Zrotation Xrotation Yrotation
									End Site
									{
OFFSET 0 -0.611710 0.611710
									}
								}
							}
						}
					}
				}
			}
		}
	}
}
MOTION
Frames: 6
Frame Time: 0.008333333333333333
1.316362 15.529176 -15.395470 -1.031946 -2.315299 33.279012 0.000000 0.000000 0.000000 -7.765001 -16.967108 -67.473345 12.739543 18.685578 68.314053 2.710399 -5.509656 -29.981352 0.069839 -1.698448 -4.673143 0.000000 0.000000 0.000000 7.701883 19.348981 -67.326026 -12.939479 -18.759759 68.936919 -2.133242 -1.918099 -28.358079 -0.143659 2.362202 -6.510734 1.410086 0.276547 26.223922 1.531963 0.967944 1.732735 0.582253 0.409621 -12.731529 -7.424949 -4.682578 -29.606379 9.172570 -4.274165 -2.738389 3.669191 -1.463889 3.964987 0.000000 0.000000 0.000000 -0.752670 -16.333710 -23.957471 40.069140 -48.096857 18.495068 23.301409 2.161185 -16.535159 0.000000 0.000000 0.000000 -7.125000 0.000000 0.000000 -4.357793 47.845082 0.306878 0.000000 0.000000 0.000000 -4.243253 -13.805700 25.158428 -43.171111 -49.836065 -20.832682 -19.684664 -19.597627 -16.678644 0.000000 0.000000 0.000000 7.125000 0.000000 0.000000 5.410357 12.385190 4.136439
1.311454 15.472970 -15.334061 -1.156485 -2.432298 33.040617 0.000000 0.000000 0.000000 -7.797971 -16.627552 -67.341541 12.984693 18.775747 69.077121 2.791291 -5.662989 -30.426108 0.100173 -2.026763 -5.580048 0.000000 0.000000 0.000000 7.912011 19.512251 -67.200949 -13.178594 -18.844846 69.678407 -2.136351 -2.612846 -28.658746 -0.278458 3.331890 -9.209662 1.403001 0.370637 26.195094 1.524387 1.084596 1.757603 0.535383 0.462586 -12.686914 -7.379186 -4.711428 -29.688393 9.259793 -4.313243 -2.981852 3.686816 -1.477638 3.903665 0.000000 0.000000 0.000000 -0.682536 -16.464385 -24.181243 42.863436 -49.633256 20.609820 23.029095 0.819331 -16.123224 0.000000 0.000000 0.000000 -7.125000 0.000000 0.000000 -4.527790 47.366631 0.264046 0.000000 0.000000 0.000000 -4.567180 -13.558522 24.995753 -45.247729 -50.864745 -22.437869 -19.817907 -20.170666 -16.707185 0.000000 0.000000 0.000000 7.125000 0.000000 0.000000 5.317125 12.342093 4.075623
1.305732 15.425265 -15.268473 -1.286052 -2.432330 32.805467 0.000000 0.000000 0.000000 -7.773886 -16.370497 -67.149547 13.209738 18.856193 69.775314 2.873932 -5.819990 -30.875527 0.130284 -2.322479 -6.397878 0.000000 0.000000 0.000000 8.193577 19.591682 -66.980134 -13.403446 -18.922533 70.373478 -2.165093 -3.149340 -29.068097 -0.403494 4.068115 -11.269785 1.478912 0.422049 26.130552 1.543310 1.174533 1.735892 0.480975 0.499604 -12.676351 -7.336653 -4.740146 -29.694480 9.340204 -4.355704 -3.219752 3.702300 -1.495552 3.834891 0.000000 0.000000 0.000000 -0.546007 -16.567620 -24.460547 46.071181 -51.237332 23.084174 22.961089 -0.219498 -15.938164 0.000000 0.000000 0.000000 -7.125000 0.000000 0.000000 -4.554034 47.159395 0.243333 0.000000 0.000000 0.000000 -4.955827 -13.074914 24.849521 -47.919719 -52.085411 -24.532140 -19.800804 -20.606260 -16.134266 0.000000 0.000000 0.000000 7.125000 0.000000 0.000000 5.300443 12.943466 3.996170
1.298985 15.392091 -15.198963 -1.365472 -2.368442 32.574374 0.000000 0.000000 0.000000 -7.774940 -16.206736 -66.871926 13.401754 18.922330 70.368580 2.956304 -5.967586 -31.319018 0.155938 -2.543311 -7.009910 0.000000 0.000000 0.000000 8.483568 19.565115 -66.651627 -13.606145 -18.990146 70.997809 -2.218931 -3.522337 -29.573016 -0.496971 4.517861 -12.538759 1.561776 0.451709 26.031733 1.561654 1.239686 1.648388 0.431425 0.524766 -12.723512 -7.270094 -4.771985 -29.568672 9.407466 -4.418046 -3.460193 3.707220 -1.527953 3.749848 0.000000 0.000000 0.000000 -0.321309 -16.616607 -24.826725 49.712234 -52.870025 25.946904 23.291845 -0.746838 -15.840469 0.000000 0.000000 0.000000 -7.125000 0.000000 0.000000 -4.220608 47.101973 0.219366 0.000000 0.000000 0.000000 -5.394398 -12.231860 24.707969 -51.257427 -53.483215 -27.183456 -19.823506 -21.285763 -15.534113 0.000000 0.000000 0.000000 7.125000 0.000000 0.000000 5.257640 13.569133 3.894118
1.291575 15.354609 -15.125674 -1.321618 -2.383755 32.290259 0.000000 0.000000 0.000000 -7.945067 -16.054639 -66.528757 13.579652 18.981176 70.916247 3.028536 -6.090262 -31.702926 0.177217 -2.709398 -7.470896 0.000000 0.000000 0.000000 8.598389 19.563136 -66.264134 -13.796715 -19.050733 71.582175 -2.277408 -3.859941 -30.088340 -0.533583 4.679633 -12.997231 1.476297 0.498601 25.827799 1.557928 1.271236 1.620269 0.466245 0.544758 -12.647131 -7.234818 -4.815091 -29.411846 9.455242 -4.485756 -3.691952 3.710284 -1.565192 3.663943 0.000000 0.000000 0.000000 0.024277 -16.804976 -25.147902 53.830946 -54.372351 29.276821 23.774242 -0.820245 -15.472033 0.000000 0.000000 0.000000 -7.125000 0.000000 0.000000 -3.693254 46.774273 0.164050 0.000000 0.000000 0.000000 -5.908393 -11.445407 24.530297 -55.283953 -54.864782 -30.460826 -19.363180 -22.540089 -15.631394 0.000000 0.000000 0.000000 7.125000 0.000000 0.000000 5.571342 13.517778 4.135116
1.281748 15.318878 -15.050914 -1.313233 -2.319583 31.948463 0.000000 0.000000 0.000000 -8.055291 -15.896703 -66.098376 13.745912 19.034866 71.426790 3.088712 -6.201998 -32.019286 0.197720 -2.861682 -7.893977 0.000000 0.000000 0.000000 8.809890 19.560231 -65.752972 -13.969185 -19.104315 72.109978 -2.339675 -4.150326 -30.602137 -0.527819 4.654024 -12.924612 1.435007 0.542769 25.606395 1.592353 1.314905 1.652227 0.514795 0.569592 -12.491696 -7.237446 -4.857671 -29.432002 9.502717 -4.537631 -3.755042 3.720328 -1.587441 3.652680 0.000000 0.000000 0.000000 0.447443 -17.173388 -25.493266 58.189052 -55.748374 32.852007 24.096238 -1.094241 -15.013193 0.000000 0.000000 0.000000 -7.125000 0.000000 0.000000 -3.305138 46.325341 0.109837 0.000000 0.000000 0.000000 -6.495169 -10.877901 24.222258 -59.555618 -56.135501 -33.983563 -18.311236 -23.625958 -15.865347 0.000000 0.000000 0.000000 7.125000 0.000000 0.000000 6.285806 13.386229 4.691717
